<svg xmlns="http://www.w3.org/2000/svg" viewBox="0 0 376 56" role="img" aria-label="N0LEDGE">
  <g fill="currentColor">
    <rect x="0" y="0" width="8" height="8"/>
    <rect x="32" y="0" width="8" height="8"/>
    <rect x="0" y="8" width="16" height="8"/>
    <rect x="32" y="8" width="8" height="8"/>
    <rect x="0" y="16" width="8" height="8"/>
    <rect x="16" y="16" width="8" height="8"/>
    <rect x="32" y="16" width="8" height="8"/>
    <rect x="0" y="24" width="8" height="8"/>
    <rect x="24" y="24" width="16" height="8"/>
    <rect x="0" y="32" width="8" height="8"/>
    <rect x="32" y="32" width="8" height="8"/>
    <rect x="0" y="40" width="8" height="8"/>
    <rect x="32" y="40" width="8" height="8"/>
    <rect x="0" y="48" width="8" height="8"/>
    <rect x="32" y="48" width="8" height="8"/>
    <rect x="64" y="0" width="24" height="8"/>
    <rect x="56" y="8" width="8" height="8"/>
    <rect x="88" y="8" width="8" height="8"/>
    <rect x="56" y="16" width="8" height="8"/>
    <rect x="80" y="16" width="16" height="8"/>
    <rect x="56" y="24" width="8" height="8"/>
    <rect x="72" y="24" width="8" height="8"/>
    <rect x="88" y="24" width="8" height="8"/>
    <rect x="56" y="32" width="16" height="8"/>
    <rect x="88" y="32" width="8" height="8"/>
    <rect x="56" y="40" width="8" height="8"/>
    <rect x="88" y="40" width="8" height="8"/>
    <rect x="64" y="48" width="24" height="8"/>
    <rect x="112" y="0" width="8" height="8"/>
    <rect x="112" y="8" width="8" height="8"/>
    <rect x="112" y="16" width="8" height="8"/>
    <rect x="112" y="24" width="8" height="8"/>
    <rect x="112" y="32" width="8" height="8"/>
    <rect x="112" y="40" width="8" height="8"/>
    <rect x="112" y="48" width="40" height="8"/>
    <rect x="168" y="0" width="40" height="8"/>
    <rect x="168" y="8" width="8" height="8"/>
    <rect x="168" y="16" width="8" height="8"/>
    <rect x="168" y="24" width="32" height="8"/>
    <rect x="168" y="32" width="8" height="8"/>
    <rect x="168" y="40" width="8" height="8"/>
    <rect x="168" y="48" width="40" height="8"/>
    <rect x="224" y="0" width="32" height="8"/>
    <rect x="224" y="8" width="8" height="8"/>
    <rect x="256" y="8" width="8" height="8"/>
    <rect x="224" y="16" width="8" height="8"/>
    <rect x="256" y="16" width="8" height="8"/>
    <rect x="224" y="24" width="8" height="8"/>
    <rect x="256" y="24" width="8" height="8"/>
    <rect x="224" y="32" width="8" height="8"/>
    <rect x="256" y="32" width="8" height="8"/>
    <rect x="224" y="40" width="8" height="8"/>
    <rect x="256" y="40" width="8" height="8"/>
    <rect x="224" y="48" width="32" height="8"/>
    <rect x="288" y="0" width="32" height="8"/>
    <rect x="280" y="8" width="8" height="8"/>
    <rect x="280" y="16" width="8" height="8"/>
    <rect x="280" y="24" width="8" height="8"/>
    <rect x="304" y="24" width="16" height="8"/>
    <rect x="280" y="32" width="8" height="8"/>
    <rect x="312" y="32" width="8" height="8"/>
    <rect x="280" y="40" width="8" height="8"/>
    <rect x="312" y="40" width="8" height="8"/>
    <rect x="288" y="48" width="32" height="8"/>
    <rect x="336" y="0" width="40" height="8"/>
    <rect x="336" y="8" width="8" height="8"/>
    <rect x="336" y="16" width="8" height="8"/>
    <rect x="336" y="24" width="32" height="8"/>
    <rect x="336" y="32" width="8" height="8"/>
    <rect x="336" y="40" width="8" height="8"/>
    <rect x="336" y="48" width="40" height="8"/>
  </g>
</svg>
